<svg xmlns="http://www.w3.org/2000/svg" xmlns:xlink="http://www.w3.org/1999/xlink" width="500" zoomAndPan="magnify" viewBox="0 0 375 374.999991" height="500" preserveAspectRatio="xMidYMid meet" version="1.2"><defs><clipPath id="f8ff09bc67"><path d="M 126.867188 135.375 L 264.019531 135.375 L 264.019531 272.527344 L 126.867188 272.527344 Z M 126.867188 135.375 "/></clipPath><clipPath id="f22829578e"><path d="M 195.441406 135.375 C 157.570312 135.375 126.867188 166.078125 126.867188 203.949219 C 126.867188 241.824219 157.570312 272.527344 195.441406 272.527344 C 233.316406 272.527344 264.019531 241.824219 264.019531 203.949219 C 264.019531 166.078125 233.316406 135.375 195.441406 135.375 Z M 195.441406 135.375 "/></clipPath><clipPath id="2a4a4d8963"><path d="M 58 88 L 196 88 L 196 227 L 58 227 Z M 58 88 "/></clipPath><clipPath id="a9280700f1"><path d="M 23.8125 157.414062 L 184.425781 69.707031 L 230.074219 153.308594 L 69.460938 241.011719 Z M 23.8125 157.414062 "/></clipPath><clipPath id="7349f03f37"><path d="M 23.8125 157.414062 L 184.425781 69.707031 L 230.074219 153.308594 L 69.460938 241.011719 Z M 23.8125 157.414062 "/></clipPath><clipPath id="b0ecee16d2"><path d="M 69 180 L 106 180 L 106 222 L 69 222 Z M 69 180 "/></clipPath><clipPath id="d7a91d80af"><path d="M 23.8125 157.414062 L 184.425781 69.707031 L 230.074219 153.308594 L 69.460938 241.011719 Z M 23.8125 157.414062 "/></clipPath><clipPath id="e6f3ed8dbe"><path d="M 23.8125 157.414062 L 184.425781 69.707031 L 230.074219 153.308594 L 69.460938 241.011719 Z M 23.8125 157.414062 "/></clipPath><clipPath id="8718ba8996"><path d="M 258 187 L 332 187 L 332 286 L 258 286 Z M 258 187 "/></clipPath><clipPath id="d20b257bf5"><path d="M 257.289062 176.65625 L 337.410156 188.546875 L 320.125 305.023438 L 240 293.132812 Z M 257.289062 176.65625 "/></clipPath><clipPath id="8fe7e51fd1"><path d="M 256.714844 175.859375 L 337.578125 187.863281 L 320.074219 305.820312 L 239.207031 293.816406 Z M 256.714844 175.859375 "/></clipPath><clipPath id="e66efc2638"><path d="M 10.5 0.65625 L 357.699219 52.183594 L 280.734375 570.753906 L -66.460938 519.226562 Z M 10.5 0.65625 "/></clipPath><clipPath id="6f308f7d86"><path d="M 271.273438 182.433594 L 336.757812 192.152344 L 321.882812 292.371094 L 256.398438 282.652344 Z M 271.273438 182.433594 "/></clipPath><clipPath id="9b2d03ef62"><path d="M 294 200 L 326 200 L 326 248 L 294 248 Z M 294 200 "/></clipPath><clipPath id="3ef4a94212"><path d="M 301.933594 196.28125 L 329.382812 200.355469 L 322.445312 247.09375 L 294.996094 243.019531 Z M 301.933594 196.28125 "/></clipPath><clipPath id="38d07ce9ff"><path d="M 106.875 73.367188 L 343.535156 108.492188 L 291.125 461.625 L 54.46875 426.5 Z M 106.875 73.367188 "/></clipPath><clipPath id="be74b6ab27"><path d="M 284.472656 197.09375 L 329.066406 203.710938 L 318.945312 271.914062 L 274.351562 265.292969 Z M 284.472656 197.09375 "/></clipPath><clipPath id="2ad719be25"><path d="M 236 100 L 268 100 L 268 145 L 236 145 Z M 236 100 "/></clipPath><clipPath id="07a7f2e766"><path d="M 222.621094 102.941406 L 275.59375 97.546875 L 280.003906 140.820312 L 227.027344 146.21875 Z M 222.621094 102.941406 "/></clipPath><clipPath id="cd3abe43ba"><path d="M 222.621094 102.941406 L 295.742188 95.492188 L 300.148438 138.769531 L 227.027344 146.21875 Z M 222.621094 102.941406 "/></clipPath><clipPath id="fd2723a99f"><path d="M 222.621094 102.941406 L 295.742188 95.492188 L 300.148438 138.769531 L 227.027344 146.21875 Z M 222.621094 102.941406 "/></clipPath><clipPath id="8957962b22"><path d="M 235.949219 101.933594 L 264.199219 99.058594 L 268.542969 141.675781 L 240.292969 144.554688 Z M 235.949219 101.933594 "/></clipPath><clipPath id="160d270902"><path d="M 223 110 L 237 110 L 237 146 L 223 146 Z M 223 110 "/></clipPath><clipPath id="9ef7c3149f"><path d="M 222.621094 102.941406 L 275.59375 97.546875 L 280.003906 140.820312 L 227.027344 146.21875 Z M 222.621094 102.941406 "/></clipPath><clipPath id="8b671ddf27"><path d="M 222.621094 102.941406 L 295.742188 95.492188 L 300.148438 138.769531 L 227.027344 146.21875 Z M 222.621094 102.941406 "/></clipPath><clipPath id="ac972fa752"><path d="M 222.621094 102.941406 L 295.742188 95.492188 L 300.148438 138.769531 L 227.027344 146.21875 Z M 222.621094 102.941406 "/></clipPath><clipPath id="35c788533b"><path d="M 223.332031 109.941406 L 233.304688 108.925781 L 236.96875 144.890625 L 226.996094 145.90625 Z M 223.332031 109.941406 "/></clipPath><clipPath id="cda1068602"><path d="M 266 106 L 281 106 L 281 142 L 266 142 Z M 266 106 "/></clipPath><clipPath id="31a92ce934"><path d="M 222.621094 102.941406 L 275.59375 97.546875 L 280.003906 140.820312 L 227.027344 146.21875 Z M 222.621094 102.941406 "/></clipPath><clipPath id="4ca4ce646f"><path d="M 222.621094 102.941406 L 295.742188 95.492188 L 300.148438 138.769531 L 227.027344 146.21875 Z M 222.621094 102.941406 "/></clipPath><clipPath id="fa53a9f63c"><path d="M 222.621094 102.941406 L 295.742188 95.492188 L 300.148438 138.769531 L 227.027344 146.21875 Z M 222.621094 102.941406 "/></clipPath><clipPath id="90a426bb64"><path d="M 266.539062 105.542969 L 296.453125 102.492188 L 300.117188 138.457031 L 270.203125 141.503906 Z M 266.539062 105.542969 "/></clipPath><clipPath id="4732a1cc4c"><path d="M 236 106 L 269 106 L 269 145 L 236 145 Z M 236 106 "/></clipPath><clipPath id="4a44b3f1e1"><path d="M 236.222656 108.894531 L 264.738281 106.15625 L 268.171875 141.914062 L 239.660156 144.652344 Z M 236.222656 108.894531 "/></clipPath></defs><g id="4d4bb80068"><rect x="0" width="375" y="0" height="374.999991" style="fill:#ffffff;fill-opacity:1;stroke:none;"/><rect x="0" width="375" y="0" height="374.999991" style="fill:#f6f4f0;fill-opacity:1;stroke:none;"/><g clip-rule="nonzero" clip-path="url(#f8ff09bc67)"><g clip-rule="nonzero" clip-path="url(#f22829578e)"><path style=" stroke:none;fill-rule:nonzero;fill:#4db5c8;fill-opacity:1;" d="M 126.867188 135.375 L 264.019531 135.375 L 264.019531 272.527344 L 126.867188 272.527344 Z M 126.867188 135.375 "/></g></g><g style="fill:#000000;fill-opacity:1;"><g transform="translate(97.797637, 209.874312)"><path style="stroke:none" d="M 15.765625 -0.953125 C 13.003906 -0.597656 10.550781 -0.832031 8.40625 -1.65625 C 6.257812 -2.488281 4.488281 -3.863281 3.09375 -5.78125 C 1.707031 -7.707031 0.75 -10.125 0.21875 -13.03125 C -0.15625 -15.125 -0.328125 -17.3125 -0.296875 -19.59375 C -0.265625 -21.875 -0.0195312 -24.15625 0.4375 -26.4375 C 0.90625 -28.71875 1.613281 -30.90625 2.5625 -33 C 3.519531 -35.09375 4.734375 -36.988281 6.203125 -38.6875 C 7.679688 -40.394531 9.429688 -41.8125 11.453125 -42.9375 C 13.484375 -44.0625 15.800781 -44.789062 18.40625 -45.125 C 20.300781 -45.375 22.082031 -45.300781 23.75 -44.90625 C 25.425781 -44.507812 27.015625 -43.988281 28.515625 -43.34375 L 28.375 -34.890625 C 27.28125 -35.453125 26.222656 -35.925781 25.203125 -36.3125 C 24.179688 -36.707031 23.140625 -36.976562 22.078125 -37.125 C 21.023438 -37.28125 19.851562 -37.273438 18.5625 -37.109375 C 16.988281 -36.910156 15.617188 -36.425781 14.453125 -35.65625 C 13.285156 -34.882812 12.300781 -33.898438 11.5 -32.703125 C 10.695312 -31.515625 10.054688 -30.191406 9.578125 -28.734375 C 9.109375 -27.285156 8.765625 -25.785156 8.546875 -24.234375 C 8.335938 -22.691406 8.253906 -21.171875 8.296875 -19.671875 C 8.335938 -18.179688 8.476562 -16.796875 8.71875 -15.515625 C 9.164062 -13.128906 10.007812 -11.382812 11.25 -10.28125 C 12.488281 -9.1875 14.109375 -8.769531 16.109375 -9.03125 C 16.867188 -9.125 17.597656 -9.332031 18.296875 -9.65625 C 18.992188 -9.988281 19.640625 -10.351562 20.234375 -10.75 L 20.84375 -22.390625 L 28.65625 -23.390625 L 27.796875 -6.171875 C 25.742188 -4.585938 23.703125 -3.378906 21.671875 -2.546875 C 19.640625 -1.722656 17.671875 -1.191406 15.765625 -0.953125 Z M 15.765625 -0.953125 "/></g></g><g style="fill:#000000;fill-opacity:1;"><g transform="translate(129.577936, 205.815055)"><path style="stroke:none" d="M 25.796875 -35.78125 C 26.140625 -33.875 26.1875 -31.953125 25.9375 -30.015625 C 25.6875 -28.085938 25.101562 -26.289062 24.1875 -24.625 C 23.269531 -22.96875 21.988281 -21.578125 20.34375 -20.453125 L 26.1875 -3.34375 L 17.578125 -2.25 L 12.734375 -17.875 L 10.21875 -17.546875 L 9.390625 -1.203125 L 0.59375 -0.078125 L 2.6875 -42.015625 L 14.71875 -43.546875 C 17.75 -43.929688 20.226562 -43.4375 22.15625 -42.0625 C 24.082031 -40.695312 25.296875 -38.601562 25.796875 -35.78125 Z M 11.09375 -35.453125 L 10.578125 -24.3125 L 13.171875 -24.640625 C 14.179688 -24.773438 15.015625 -25.132812 15.671875 -25.71875 C 16.328125 -26.300781 16.820312 -27.003906 17.15625 -27.828125 C 17.5 -28.648438 17.703125 -29.507812 17.765625 -30.40625 C 17.835938 -31.3125 17.804688 -32.148438 17.671875 -32.921875 C 17.484375 -33.960938 17.078125 -34.738281 16.453125 -35.25 C 15.835938 -35.757812 15.003906 -35.945312 13.953125 -35.8125 Z M 11.09375 -35.453125 "/></g></g><g style="fill:#000000;fill-opacity:1;"><g transform="translate(158.566721, 202.112355)"><path style="stroke:none" d="M 15.71875 -0.9375 C 12.9375 -0.582031 10.472656 -0.832031 8.328125 -1.6875 C 6.191406 -2.539062 4.4375 -3.941406 3.0625 -5.890625 C 1.6875 -7.835938 0.734375 -10.253906 0.203125 -13.140625 C -0.171875 -15.179688 -0.335938 -17.320312 -0.296875 -19.5625 C -0.265625 -21.8125 -0.0195312 -24.078125 0.4375 -26.359375 C 0.894531 -28.640625 1.585938 -30.820312 2.515625 -32.90625 C 3.441406 -35 4.617188 -36.898438 6.046875 -38.609375 C 7.472656 -40.328125 9.171875 -41.75 11.140625 -42.875 C 13.109375 -44.007812 15.351562 -44.738281 17.875 -45.0625 C 20.363281 -45.382812 22.535156 -45.203125 24.390625 -44.515625 C 26.242188 -43.828125 27.8125 -42.765625 29.09375 -41.328125 C 30.375 -39.898438 31.375 -38.191406 32.09375 -36.203125 C 32.820312 -34.222656 33.289062 -32.082031 33.5 -29.78125 C 33.695312 -27.632812 33.707031 -25.472656 33.53125 -23.296875 C 33.351562 -21.128906 32.976562 -19.015625 32.40625 -16.953125 C 31.832031 -14.898438 31.054688 -12.972656 30.078125 -11.171875 C 29.109375 -9.367188 27.929688 -7.75 26.546875 -6.3125 C 25.171875 -4.875 23.578125 -3.691406 21.765625 -2.765625 C 19.960938 -1.835938 17.945312 -1.226562 15.71875 -0.9375 Z M 15.765625 -9.171875 C 17.097656 -9.347656 18.285156 -9.835938 19.328125 -10.640625 C 20.367188 -11.453125 21.25 -12.484375 21.96875 -13.734375 C 22.6875 -14.992188 23.265625 -16.382812 23.703125 -17.90625 C 24.148438 -19.425781 24.46875 -21 24.65625 -22.625 C 24.84375 -24.25 24.894531 -25.832031 24.8125 -27.375 C 24.78125 -28.65625 24.640625 -29.894531 24.390625 -31.09375 C 24.140625 -32.289062 23.742188 -33.347656 23.203125 -34.265625 C 22.660156 -35.191406 21.945312 -35.890625 21.0625 -36.359375 C 20.1875 -36.835938 19.085938 -36.992188 17.765625 -36.828125 C 16.359375 -36.640625 15.128906 -36.15625 14.078125 -35.375 C 13.035156 -34.59375 12.148438 -33.597656 11.421875 -32.390625 C 10.703125 -31.179688 10.125 -29.847656 9.6875 -28.390625 C 9.257812 -26.929688 8.953125 -25.429688 8.765625 -23.890625 C 8.578125 -22.347656 8.5 -20.859375 8.53125 -19.421875 C 8.570312 -17.992188 8.691406 -16.703125 8.890625 -15.546875 C 9.285156 -13.285156 10.0625 -11.597656 11.21875 -10.484375 C 12.382812 -9.367188 13.898438 -8.929688 15.765625 -9.171875 Z M 15.765625 -9.171875 "/></g></g><g style="fill:#000000;fill-opacity:1;"><g transform="translate(194.802704, 197.483979)"><path style="stroke:none" d="M 15.71875 -0.9375 C 12.9375 -0.582031 10.472656 -0.832031 8.328125 -1.6875 C 6.191406 -2.539062 4.4375 -3.941406 3.0625 -5.890625 C 1.6875 -7.835938 0.734375 -10.253906 0.203125 -13.140625 C -0.171875 -15.179688 -0.335938 -17.320312 -0.296875 -19.5625 C -0.265625 -21.8125 -0.0195312 -24.078125 0.4375 -26.359375 C 0.894531 -28.640625 1.585938 -30.820312 2.515625 -32.90625 C 3.441406 -35 4.617188 -36.898438 6.046875 -38.609375 C 7.472656 -40.328125 9.171875 -41.75 11.140625 -42.875 C 13.109375 -44.007812 15.351562 -44.738281 17.875 -45.0625 C 20.363281 -45.382812 22.535156 -45.203125 24.390625 -44.515625 C 26.242188 -43.828125 27.8125 -42.765625 29.09375 -41.328125 C 30.375 -39.898438 31.375 -38.191406 32.09375 -36.203125 C 32.820312 -34.222656 33.289062 -32.082031 33.5 -29.78125 C 33.695312 -27.632812 33.707031 -25.472656 33.53125 -23.296875 C 33.351562 -21.128906 32.976562 -19.015625 32.40625 -16.953125 C 31.832031 -14.898438 31.054688 -12.972656 30.078125 -11.171875 C 29.109375 -9.367188 27.929688 -7.75 26.546875 -6.3125 C 25.171875 -4.875 23.578125 -3.691406 21.765625 -2.765625 C 19.960938 -1.835938 17.945312 -1.226562 15.71875 -0.9375 Z M 15.765625 -9.171875 C 17.097656 -9.347656 18.285156 -9.835938 19.328125 -10.640625 C 20.367188 -11.453125 21.25 -12.484375 21.96875 -13.734375 C 22.6875 -14.992188 23.265625 -16.382812 23.703125 -17.90625 C 24.148438 -19.425781 24.46875 -21 24.65625 -22.625 C 24.84375 -24.25 24.894531 -25.832031 24.8125 -27.375 C 24.78125 -28.65625 24.640625 -29.894531 24.390625 -31.09375 C 24.140625 -32.289062 23.742188 -33.347656 23.203125 -34.265625 C 22.660156 -35.191406 21.945312 -35.890625 21.0625 -36.359375 C 20.1875 -36.835938 19.085938 -36.992188 17.765625 -36.828125 C 16.359375 -36.640625 15.128906 -36.15625 14.078125 -35.375 C 13.035156 -34.59375 12.148438 -33.597656 11.421875 -32.390625 C 10.703125 -31.179688 10.125 -29.847656 9.6875 -28.390625 C 9.257812 -26.929688 8.953125 -25.429688 8.765625 -23.890625 C 8.578125 -22.347656 8.5 -20.859375 8.53125 -19.421875 C 8.570312 -17.992188 8.691406 -16.703125 8.890625 -15.546875 C 9.285156 -13.285156 10.0625 -11.597656 11.21875 -10.484375 C 12.382812 -9.367188 13.898438 -8.929688 15.765625 -9.171875 Z M 15.765625 -9.171875 "/></g></g><g style="fill:#000000;fill-opacity:1;"><g transform="translate(231.038686, 192.855604)"><path style="stroke:none" d="M 23.359375 -44.65625 L 32.5625 -45.828125 L 18.5625 -2.375 L 10.265625 -1.3125 L 0.5625 -41.734375 L 9.609375 -42.890625 L 15 -15.96875 Z M 23.359375 -44.65625 "/></g></g><g style="fill:#000000;fill-opacity:1;"><g transform="translate(264.912619, 188.528929)"><path style="stroke:none" d="M 0.59375 -0.078125 L 2.6875 -42.015625 L 22.859375 -44.59375 L 22.453125 -36.53125 L 11.03125 -35.078125 L 10.609375 -26.3125 L 20.5625 -27.59375 L 20.171875 -20.0625 L 10.234375 -18.796875 L 9.78125 -9.234375 L 21.40625 -10.71875 L 20.984375 -2.6875 Z M 0.59375 -0.078125 "/></g></g><g style="fill:#000000;fill-opacity:1;"><g transform="translate(109.794199, 269.179109)"><path style="stroke:none" d="M 23.703125 -44.703125 L 32.453125 -45.8125 L 30.328125 -3.1875 L 23.625 -2.328125 L 10.453125 -24.578125 L 9.390625 -1.203125 L 0.59375 -0.078125 L 2.65625 -42.5625 L 9.421875 -43.421875 L 22.453125 -20 Z M 23.703125 -44.703125 "/></g></g><g style="fill:#000000;fill-opacity:1;"><g transform="translate(145.573883, 264.609016)"><path style="stroke:none" d="M 15.71875 -0.9375 C 12.9375 -0.582031 10.472656 -0.832031 8.328125 -1.6875 C 6.191406 -2.539062 4.4375 -3.941406 3.0625 -5.890625 C 1.6875 -7.835938 0.734375 -10.253906 0.203125 -13.140625 C -0.171875 -15.179688 -0.335938 -17.320312 -0.296875 -19.5625 C -0.265625 -21.8125 -0.0195312 -24.078125 0.4375 -26.359375 C 0.894531 -28.640625 1.585938 -30.820312 2.515625 -32.90625 C 3.441406 -35 4.617188 -36.898438 6.046875 -38.609375 C 7.472656 -40.328125 9.171875 -41.75 11.140625 -42.875 C 13.109375 -44.007812 15.351562 -44.738281 17.875 -45.0625 C 20.363281 -45.382812 22.535156 -45.203125 24.390625 -44.515625 C 26.242188 -43.828125 27.8125 -42.765625 29.09375 -41.328125 C 30.375 -39.898438 31.375 -38.191406 32.09375 -36.203125 C 32.820312 -34.222656 33.289062 -32.082031 33.5 -29.78125 C 33.695312 -27.632812 33.707031 -25.472656 33.53125 -23.296875 C 33.351562 -21.128906 32.976562 -19.015625 32.40625 -16.953125 C 31.832031 -14.898438 31.054688 -12.972656 30.078125 -11.171875 C 29.109375 -9.367188 27.929688 -7.75 26.546875 -6.3125 C 25.171875 -4.875 23.578125 -3.691406 21.765625 -2.765625 C 19.960938 -1.835938 17.945312 -1.226562 15.71875 -0.9375 Z M 15.765625 -9.171875 C 17.097656 -9.347656 18.285156 -9.835938 19.328125 -10.640625 C 20.367188 -11.453125 21.25 -12.484375 21.96875 -13.734375 C 22.6875 -14.992188 23.265625 -16.382812 23.703125 -17.90625 C 24.148438 -19.425781 24.46875 -21 24.65625 -22.625 C 24.84375 -24.25 24.894531 -25.832031 24.8125 -27.375 C 24.78125 -28.65625 24.640625 -29.894531 24.390625 -31.09375 C 24.140625 -32.289062 23.742188 -33.347656 23.203125 -34.265625 C 22.660156 -35.191406 21.945312 -35.890625 21.0625 -36.359375 C 20.1875 -36.835938 19.085938 -36.992188 17.765625 -36.828125 C 16.359375 -36.640625 15.128906 -36.15625 14.078125 -35.375 C 13.035156 -34.59375 12.148438 -33.597656 11.421875 -32.390625 C 10.703125 -31.179688 10.125 -29.847656 9.6875 -28.390625 C 9.257812 -26.929688 8.953125 -25.429688 8.765625 -23.890625 C 8.578125 -22.347656 8.5 -20.859375 8.53125 -19.421875 C 8.570312 -17.992188 8.691406 -16.703125 8.890625 -15.546875 C 9.285156 -13.285156 10.0625 -11.597656 11.21875 -10.484375 C 12.382812 -9.367188 13.898438 -8.929688 15.765625 -9.171875 Z M 15.765625 -9.171875 "/></g></g><g style="fill:#000000;fill-opacity:1;"><g transform="translate(181.809865, 259.980641)"><path style="stroke:none" d="M 37.421875 -46.453125 L 39.703125 -5.078125 L 30.984375 -3.953125 L 30.109375 -26.890625 L 30.0625 -27.171875 L 29.984375 -26.90625 L 22.328125 -2.859375 L 17.203125 -2.203125 L 11.515625 -24.4375 L 8.625 -1.09375 L -0.5625 0.078125 L 5.65625 -42.390625 L 13.609375 -43.40625 L 20.140625 -17.734375 L 29.46875 -45.4375 Z M 37.421875 -46.453125 "/></g></g><g style="fill:#000000;fill-opacity:1;"><g transform="translate(225.64199, 254.38202)"><path style="stroke:none" d="M 21.78125 -2.78125 L 20.0625 -11.875 L 10.75 -10.671875 L 8.0625 -1.03125 L -1.453125 0.1875 L 12.34375 -43.25 L 21.390625 -44.40625 L 31.03125 -3.96875 Z M 12.90625 -18.3125 L 18.703125 -19.046875 L 16.453125 -30.984375 Z M 12.90625 -18.3125 "/></g></g><g style="fill:#000000;fill-opacity:1;"><g transform="translate(259.945387, 250.000491)"><path style="stroke:none" d="M 0.59375 -0.078125 L 2.6875 -42.015625 L 13.6875 -43.421875 C 18.195312 -43.992188 21.789062 -43.34375 24.46875 -41.46875 C 27.15625 -39.601562 28.890625 -36.554688 29.671875 -32.328125 C 30.046875 -30.273438 30.234375 -28.144531 30.234375 -25.9375 C 30.242188 -23.738281 30.039062 -21.546875 29.625 -19.359375 C 29.207031 -17.171875 28.546875 -15.085938 27.640625 -13.109375 C 26.742188 -11.128906 25.5625 -9.328125 24.09375 -7.703125 C 22.632812 -6.078125 20.878906 -4.722656 18.828125 -3.640625 C 16.785156 -2.554688 14.398438 -1.835938 11.671875 -1.484375 Z M 9.8125 -9.46875 L 11.796875 -9.71875 C 13.316406 -9.914062 14.625 -10.367188 15.71875 -11.078125 C 16.820312 -11.785156 17.742188 -12.679688 18.484375 -13.765625 C 19.234375 -14.859375 19.820312 -16.050781 20.25 -17.34375 C 20.6875 -18.644531 20.988281 -19.988281 21.15625 -21.375 C 21.320312 -22.757812 21.382812 -24.117188 21.34375 -25.453125 C 21.300781 -26.785156 21.179688 -28.015625 20.984375 -29.140625 C 20.585938 -31.410156 19.753906 -33.046875 18.484375 -34.046875 C 17.222656 -35.054688 15.476562 -35.421875 13.25 -35.140625 L 11.0625 -34.859375 Z M 9.8125 -9.46875 "/></g></g><g clip-rule="nonzero" clip-path="url(#2a4a4d8963)"><g clip-rule="nonzero" clip-path="url(#a9280700f1)"><g clip-rule="nonzero" clip-path="url(#7349f03f37)"><path style=" stroke:none;fill-rule:nonzero;fill:#000000;fill-opacity:1;" d="M 191.648438 88.644531 C 188.894531 88.941406 186.144531 89.324219 183.433594 89.882812 C 181.058594 90.363281 179.078125 91.726562 177.382812 93.441406 C 176.375 94.457031 175.558594 95.679688 174.480469 96.589844 C 170.425781 100.015625 166.285156 103.339844 162.195312 106.722656 C 161.328125 107.441406 160.441406 107.9375 159.261719 108.015625 C 157.453125 108.148438 155.660156 108.457031 153.859375 108.695312 C 136.179688 110.980469 118.496094 113.261719 100.820312 115.570312 C 100.308594 115.636719 99.789062 115.921875 99.339844 116.199219 C 97.871094 117.113281 97.710938 118.804688 96.914062 120.234375 C 97.238281 120.265625 97.449219 120.296875 97.660156 120.3125 C 107.65625 120.9375 117.652344 121.558594 127.648438 122.191406 C 128.832031 122.265625 130.035156 122.28125 131.179688 122.535156 C 132.636719 122.855469 134.042969 123.386719 135.46875 123.828125 C 136.648438 124.191406 137.828125 124.5625 139.128906 124.964844 C 137.996094 125.890625 136.957031 126.730469 135.929688 127.582031 C 133.761719 129.367188 131.613281 131.167969 129.425781 132.925781 C 129.15625 133.144531 128.648438 133.296875 128.335938 133.195312 C 125.128906 132.160156 121.9375 131.070312 118.738281 129.996094 C 116.390625 129.203125 114.292969 129.441406 112.601562 131.613281 C 114.085938 133.871094 115.613281 136.179688 117.183594 138.558594 C 116.886719 138.582031 116.699219 138.601562 116.507812 138.609375 C 112.796875 138.828125 109.085938 139.046875 105.371094 139.261719 C 103.929688 139.34375 102.761719 139.921875 101.992188 141.171875 C 101.605469 141.808594 101.738281 142.101562 102.464844 142.292969 C 104.738281 142.882812 107.015625 143.472656 109.292969 144.058594 C 111.753906 144.695312 114.210938 145.332031 116.707031 145.972656 C 116.613281 146.207031 116.53125 146.367188 116.480469 146.542969 C 116.441406 146.699219 116.417969 146.847656 116.410156 146.992188 C 76.40625 175.898438 51.679688 208.476562 60.566406 221.441406 C 67.261719 231.214844 91.234375 227.199219 120.351562 213.121094 C 94.492188 224.402344 74.085938 227.105469 68.097656 218.375 C 59.839844 206.324219 81.808594 176.527344 118.457031 148.234375 C 118.9375 148.070312 119.398438 147.835938 119.886719 147.734375 C 120.332031 147.640625 120.875 147.597656 121.273438 147.769531 C 123.53125 148.746094 125.777344 149.75 127.988281 150.832031 C 128.929688 151.296875 129.523438 150.820312 130.136719 150.324219 C 130.726562 149.847656 131.011719 149.257812 130.746094 148.429688 C 130.289062 146.996094 129.933594 145.535156 129.519531 144.03125 C 131.472656 143.101562 133.40625 142.28125 135.25 141.289062 C 141.214844 138.082031 147.265625 135.023438 152.777344 131.042969 C 153.097656 130.808594 153.664062 130.742188 154.066406 130.832031 C 156.417969 131.332031 158.75 131.925781 161.101562 132.4375 C 161.640625 132.550781 161.960938 132.777344 162.21875 133.261719 C 164.457031 137.402344 166.71875 141.527344 168.976562 145.660156 C 169.117188 145.917969 169.257812 146.179688 169.4375 146.503906 C 170.378906 145.859375 171.214844 145.226562 172.109375 144.695312 C 173.402344 143.921875 173.878906 142.785156 173.773438 141.347656 C 173.203125 133.355469 172.640625 125.363281 172.03125 117.371094 C 171.972656 116.601562 172.238281 116.175781 172.78125 115.734375 C 176.488281 112.710938 180.242188 109.738281 183.863281 106.613281 C 187.070312 103.847656 190.035156 100.8125 192.53125 97.359375 C 193.632812 95.835938 194.671875 94.257812 194.972656 92.339844 C 195.332031 90.011719 193.957031 88.398438 191.648438 88.644531 Z M 191.648438 88.644531 "/></g></g></g><g clip-rule="nonzero" clip-path="url(#b0ecee16d2)"><g clip-rule="nonzero" clip-path="url(#d7a91d80af)"><g clip-rule="nonzero" clip-path="url(#e6f3ed8dbe)"><path style=" stroke:none;fill-rule:nonzero;fill:#f57616;fill-opacity:1;" d="M 90.023438 180.308594 C 89.648438 180.503906 89.277344 180.695312 88.902344 180.902344 C 75.347656 188.300781 66.199219 208.234375 70.324219 215.785156 C 74.445312 223.339844 90.804688 224.222656 104.355469 216.824219 C 104.730469 216.621094 105.09375 216.410156 105.460938 216.203125 C 92.25 222.996094 76.558594 221.917969 72.546875 214.570312 C 68.535156 207.226562 77.164062 187.75 90.023438 180.308594 Z M 90.023438 180.308594 "/></g></g></g><g clip-rule="nonzero" clip-path="url(#8718ba8996)"><g clip-rule="nonzero" clip-path="url(#d20b257bf5)"><g clip-rule="nonzero" clip-path="url(#8fe7e51fd1)"><g clip-rule="nonzero" clip-path="url(#e66efc2638)"><g clip-rule="nonzero" clip-path="url(#6f308f7d86)"><path style=" stroke:none;fill-rule:nonzero;fill:#000000;fill-opacity:1;" d="M 330.882812 220.058594 C 329.492188 215.871094 326.347656 212.59375 323.039062 209.816406 C 319.578125 206.90625 315.855469 204.335938 312.652344 201.125 C 309.078125 197.539062 306.109375 193.296875 304.515625 188.46875 C 304.496094 188.292969 304.441406 188.128906 304.359375 187.980469 C 304.234375 187.613281 303.863281 187.390625 303.484375 187.355469 C 303.46875 187.355469 303.453125 187.351562 303.4375 187.347656 C 302.742188 187.246094 302.09375 187.726562 301.992188 188.421875 L 292.921875 249.539062 C 292.542969 252.082031 290.089844 253.125 287.527344 252.90625 C 280.496094 252.300781 274.542969 251.800781 267.46875 255.75 C 260.414062 259.691406 255.011719 269.589844 261.355469 278.230469 C 261.519531 278.449219 261.683594 278.660156 261.851562 278.871094 C 270.253906 289.351562 286.949219 286.261719 291.324219 273.5625 C 292.488281 270.1875 293.566406 262.550781 293.566406 262.550781 L 303.285156 197.0625 C 304.707031 199.089844 306.9375 201.082031 308.917969 202.820312 C 312.90625 206.308594 315.351562 207.960938 319.222656 210.4375 C 323.644531 213.265625 325.945312 214.769531 327.917969 218.4375 C 329.90625 222.144531 330.054688 226.40625 328.675781 230.355469 C 327.054688 234.988281 323.832031 238.976562 319.984375 241.964844 C 318.925781 242.785156 320.164062 244.464844 321.226562 243.636719 C 328.136719 238.277344 333.855469 229.019531 330.882812 220.058594 "/></g></g></g></g></g><g clip-rule="nonzero" clip-path="url(#9b2d03ef62)"><g clip-rule="nonzero" clip-path="url(#3ef4a94212)"><g clip-rule="nonzero" clip-path="url(#38d07ce9ff)"><g clip-rule="nonzero" clip-path="url(#be74b6ab27)"><path style=" stroke:none;fill-rule:nonzero;fill:#ff914d;fill-opacity:1;" d="M 325.070312 222.703125 C 324.121094 219.851562 321.980469 217.625 319.726562 215.730469 C 317.371094 213.75 314.835938 212.003906 312.652344 209.816406 C 310.21875 207.378906 308.199219 204.488281 307.109375 201.203125 C 307.097656 201.082031 307.0625 200.96875 307.003906 200.871094 C 306.917969 200.621094 306.667969 200.46875 306.410156 200.445312 C 306.398438 200.445312 306.386719 200.441406 306.378906 200.441406 C 305.902344 200.371094 305.460938 200.695312 305.390625 201.171875 L 299.21875 242.761719 C 298.960938 244.492188 297.292969 245.203125 295.546875 245.054688 C 290.757812 244.640625 286.703125 244.300781 281.886719 246.988281 C 277.082031 249.671875 273.402344 256.40625 277.726562 262.285156 C 277.835938 262.433594 277.949219 262.578125 278.0625 262.722656 C 283.785156 269.855469 295.152344 267.753906 298.132812 259.109375 C 298.925781 256.816406 299.660156 251.617188 299.660156 251.617188 L 306.273438 207.050781 C 307.242188 208.429688 308.761719 209.789062 310.109375 210.96875 C 312.824219 213.34375 314.492188 214.46875 317.128906 216.15625 C 320.140625 218.082031 321.707031 219.101562 323.050781 221.597656 C 324.40625 224.121094 324.507812 227.023438 323.566406 229.710938 C 322.464844 232.863281 320.269531 235.578125 317.648438 237.609375 C 316.929688 238.167969 317.769531 239.3125 318.496094 238.75 C 323.199219 235.101562 327.09375 228.800781 325.070312 222.703125 "/></g></g></g></g><g clip-rule="nonzero" clip-path="url(#2ad719be25)"><g clip-rule="nonzero" clip-path="url(#07a7f2e766)"><g clip-rule="nonzero" clip-path="url(#cd3abe43ba)"><g clip-rule="nonzero" clip-path="url(#fd2723a99f)"><g clip-rule="nonzero" clip-path="url(#8957962b22)"><path style=" stroke:none;fill-rule:nonzero;fill:#040606;fill-opacity:1;" d="M 245.140625 105.671875 C 245.070312 104.984375 245.558594 104.390625 246.246094 104.320312 L 252.867188 103.644531 C 253.5625 103.574219 254.15625 104.058594 254.226562 104.746094 L 254.550781 107.910156 L 245.460938 108.835938 Z M 257.6875 104.394531 C 257.429688 101.855469 255.140625 99.988281 252.601562 100.246094 L 245.980469 100.917969 C 243.441406 101.179688 241.574219 103.46875 241.835938 106.011719 L 242.15625 109.175781 L 236.761719 109.722656 L 240.304688 144.472656 L 267.023438 141.75 L 263.480469 107 L 258.085938 107.550781 L 257.765625 104.386719 L 257.6875 104.394531 "/></g></g></g></g></g><g clip-rule="nonzero" clip-path="url(#160d270902)"><g clip-rule="nonzero" clip-path="url(#9ef7c3149f)"><g clip-rule="nonzero" clip-path="url(#8b671ddf27)"><g clip-rule="nonzero" clip-path="url(#ac972fa752)"><g clip-rule="nonzero" clip-path="url(#35c788533b)"><path style=" stroke:none;fill-rule:nonzero;fill:#040606;fill-opacity:1;" d="M 223.894531 115.472656 L 226.550781 141.515625 C 226.792969 143.898438 228.917969 145.710938 231.386719 145.460938 L 236.851562 144.902344 L 233.300781 110.078125 L 227.835938 110.632812 C 225.371094 110.882812 223.644531 113.003906 223.894531 115.472656 "/></g></g></g></g></g><g clip-rule="nonzero" clip-path="url(#cda1068602)"><g clip-rule="nonzero" clip-path="url(#31a92ce934)"><g clip-rule="nonzero" clip-path="url(#4ca4ce646f)"><g clip-rule="nonzero" clip-path="url(#fa53a9f63c)"><g clip-rule="nonzero" clip-path="url(#90a426bb64)"><path style=" stroke:none;fill-rule:nonzero;fill:#040606;fill-opacity:1;" d="M 290.238281 126.847656 C 289.261719 127.261719 288.214844 126.902344 287.730469 125.941406 C 287.324219 124.964844 287.675781 123.917969 288.644531 123.429688 C 289.613281 123.023438 290.660156 123.382812 291.148438 124.34375 C 291.558594 125.3125 291.199219 126.441406 290.238281 126.847656 Z M 299.472656 132.757812 L 294.507812 122.210938 C 294.3125 121.84375 293.976562 121.5625 293.578125 121.449219 L 288.195312 119.820312 C 286.1875 115.351562 281.578125 112.867188 277.195312 111.828125 L 277.015625 110.0625 C 276.773438 107.667969 274.640625 105.859375 272.179688 106.109375 L 266.707031 106.667969 L 270.25 141.421875 L 275.722656 140.863281 C 278.101562 140.621094 279.914062 138.488281 279.660156 136.023438 L 277.457031 114.375 C 280.972656 115.335938 284.527344 117.390625 286.042969 120.8125 L 283.851562 126.019531 C 283.65625 126.433594 283.695312 126.816406 283.890625 127.183594 L 288.855469 137.734375 C 289.160156 138.484375 290.050781 138.78125 290.796875 138.46875 L 298.746094 134.785156 C 299.480469 134.394531 299.777344 133.511719 299.472656 132.757812 "/></g></g></g></g></g><g clip-rule="nonzero" clip-path="url(#4732a1cc4c)"><g clip-rule="nonzero" clip-path="url(#4a44b3f1e1)"><path style=" stroke:none;fill-rule:nonzero;fill:#f57616;fill-opacity:1;" d="M 236.222656 108.894531 L 264.738281 106.15625 L 268.167969 141.90625 L 239.65625 144.644531 Z M 236.222656 108.894531 "/></g></g></g></svg>