<svg xmlns="http://www.w3.org/2000/svg" xmlns:xlink="http://www.w3.org/1999/xlink" width="500" zoomAndPan="magnify" viewBox="0 0 375 374.999991" height="500" preserveAspectRatio="xMidYMid meet" version="1.2"><defs><clipPath id="4edca95883"><path d="M 62.125 69.3125 L 301.671875 69.3125 L 301.671875 308.855469 L 62.125 308.855469 Z M 62.125 69.3125 "/></clipPath><clipPath id="3cd036a996"><path d="M 181.898438 69.3125 C 115.75 69.3125 62.125 122.9375 62.125 189.085938 C 62.125 255.234375 115.75 308.855469 181.898438 308.855469 C 248.046875 308.855469 301.671875 255.234375 301.671875 189.085938 C 301.671875 122.9375 248.046875 69.3125 181.898438 69.3125 Z M 181.898438 69.3125 "/></clipPath></defs><g id="56a17acd09"><rect x="0" width="375" y="0" height="374.999991" style="fill:#ffffff;fill-opacity:1;stroke:none;"/><rect x="0" width="375" y="0" height="374.999991" style="fill:#ffffff;fill-opacity:1;stroke:none;"/><g clip-rule="nonzero" clip-path="url(#4edca95883)"><g clip-rule="nonzero" clip-path="url(#3cd036a996)"><path style=" stroke:none;fill-rule:nonzero;fill:#4db5c8;fill-opacity:1;" d="M 62.125 69.3125 L 301.671875 69.3125 L 301.671875 308.855469 L 62.125 308.855469 Z M 62.125 69.3125 "/></g></g><g style="fill:#000000;fill-opacity:1;"><g transform="translate(11.357133, 199.430635)"><path style="stroke:none" d="M 27.515625 -1.65625 C 22.710938 -1.039062 18.4375 -1.453125 14.6875 -2.890625 C 10.945312 -4.335938 7.859375 -6.738281 5.421875 -10.09375 C 2.992188 -13.457031 1.3125 -17.679688 0.375 -22.765625 C -0.28125 -26.398438 -0.582031 -30.210938 -0.53125 -34.203125 C -0.488281 -38.203125 -0.0507812 -42.191406 0.78125 -46.171875 C 1.613281 -50.148438 2.851562 -53.96875 4.5 -57.625 C 6.15625 -61.289062 8.269531 -64.613281 10.84375 -67.59375 C 13.425781 -70.570312 16.476562 -73.039062 20 -75 C 23.53125 -76.96875 27.578125 -78.242188 32.140625 -78.828125 C 35.460938 -79.242188 38.578125 -79.101562 41.484375 -78.40625 C 44.398438 -77.707031 47.171875 -76.796875 49.796875 -75.671875 L 49.546875 -60.9375 C 47.640625 -61.9375 45.800781 -62.773438 44.03125 -63.453125 C 42.257812 -64.128906 40.441406 -64.601562 38.578125 -64.875 C 36.710938 -65.144531 34.65625 -65.132812 32.40625 -64.84375 C 29.65625 -64.5 27.265625 -63.644531 25.234375 -62.28125 C 23.203125 -60.925781 21.484375 -59.207031 20.078125 -57.125 C 18.671875 -55.039062 17.550781 -52.726562 16.71875 -50.1875 C 15.882812 -47.644531 15.289062 -45.023438 14.9375 -42.328125 C 14.582031 -39.628906 14.4375 -36.972656 14.5 -34.359375 C 14.570312 -31.753906 14.8125 -29.332031 15.21875 -27.09375 C 16 -22.9375 17.472656 -19.898438 19.640625 -17.984375 C 21.804688 -16.078125 24.644531 -15.347656 28.15625 -15.796875 C 29.46875 -15.960938 30.738281 -16.328125 31.96875 -16.890625 C 33.195312 -17.460938 34.320312 -18.085938 35.34375 -18.765625 L 36.421875 -39.09375 L 50.0625 -40.84375 L 48.546875 -10.78125 C 44.960938 -8 41.394531 -5.890625 37.84375 -4.453125 C 34.300781 -3.015625 30.859375 -2.082031 27.515625 -1.65625 Z M 27.515625 -1.65625 "/></g></g><g style="fill:#000000;fill-opacity:1;"><g transform="translate(66.863127, 192.340926)"><path style="stroke:none" d="M 45.0625 -62.515625 C 45.675781 -59.160156 45.757812 -55.800781 45.3125 -52.4375 C 44.863281 -49.082031 43.835938 -45.953125 42.234375 -43.046875 C 40.640625 -40.140625 38.410156 -37.691406 35.546875 -35.703125 L 45.75 -5.84375 L 30.703125 -3.921875 L 22.28125 -31.1875 L 17.859375 -30.625 L 16.40625 -2.09375 L 1.03125 -0.125 L 4.6875 -73.359375 L 25.703125 -76.046875 C 31.015625 -76.722656 35.347656 -75.867188 38.703125 -73.484375 C 42.054688 -71.109375 44.175781 -67.453125 45.0625 -62.515625 Z M 19.390625 -61.90625 L 18.5 -42.46875 L 22.984375 -43.046875 C 24.765625 -43.273438 26.222656 -43.898438 27.359375 -44.921875 C 28.503906 -45.941406 29.375 -47.171875 29.96875 -48.609375 C 30.570312 -50.054688 30.929688 -51.566406 31.046875 -53.140625 C 31.160156 -54.710938 31.097656 -56.164062 30.859375 -57.5 C 30.535156 -59.320312 29.832031 -60.675781 28.75 -61.5625 C 27.664062 -62.445312 26.203125 -62.769531 24.359375 -62.53125 Z M 19.390625 -61.90625 "/></g></g><g style="fill:#000000;fill-opacity:1;"><g transform="translate(117.493594, 185.873961)"><path style="stroke:none" d="M 27.421875 -1.640625 C 22.585938 -1.023438 18.300781 -1.460938 14.5625 -2.953125 C 10.820312 -4.441406 7.75 -6.882812 5.34375 -10.28125 C 2.945312 -13.675781 1.285156 -17.898438 0.359375 -22.953125 C -0.285156 -26.492188 -0.582031 -30.226562 -0.53125 -34.15625 C -0.476562 -38.09375 -0.046875 -42.046875 0.765625 -46.015625 C 1.585938 -49.992188 2.800781 -53.8125 4.40625 -57.46875 C 6.019531 -61.125 8.070312 -64.453125 10.5625 -67.453125 C 13.050781 -70.460938 16.007812 -72.945312 19.4375 -74.90625 C 22.875 -76.875 26.800781 -78.140625 31.21875 -78.703125 C 35.550781 -79.253906 39.34375 -78.9375 42.59375 -77.75 C 45.851562 -76.5625 48.59375 -74.707031 50.8125 -72.1875 C 53.039062 -69.675781 54.789062 -66.691406 56.0625 -63.234375 C 57.332031 -59.773438 58.144531 -56.035156 58.5 -52.015625 C 58.851562 -48.242188 58.875 -44.460938 58.5625 -40.671875 C 58.25 -36.890625 57.585938 -33.203125 56.578125 -29.609375 C 55.578125 -26.023438 54.226562 -22.65625 52.53125 -19.5 C 50.84375 -16.34375 48.789062 -13.515625 46.375 -11.015625 C 43.96875 -8.515625 41.1875 -6.453125 38.03125 -4.828125 C 34.875 -3.203125 31.335938 -2.140625 27.421875 -1.640625 Z M 27.53125 -16.0625 C 29.875 -16.363281 31.945312 -17.210938 33.75 -18.609375 C 35.5625 -20.015625 37.097656 -21.816406 38.359375 -24.015625 C 39.628906 -26.210938 40.648438 -28.640625 41.421875 -31.296875 C 42.191406 -33.953125 42.738281 -36.691406 43.0625 -39.515625 C 43.382812 -42.347656 43.484375 -45.109375 43.359375 -47.796875 C 43.285156 -50.046875 43.03125 -52.210938 42.59375 -54.296875 C 42.15625 -56.378906 41.46875 -58.226562 40.53125 -59.84375 C 39.59375 -61.46875 38.351562 -62.695312 36.8125 -63.53125 C 35.269531 -64.363281 33.347656 -64.632812 31.046875 -64.34375 C 28.578125 -64.03125 26.425781 -63.179688 24.59375 -61.796875 C 22.769531 -60.421875 21.222656 -58.675781 19.953125 -56.5625 C 18.679688 -54.445312 17.664062 -52.117188 16.90625 -49.578125 C 16.15625 -47.035156 15.617188 -44.425781 15.296875 -41.75 C 14.972656 -39.070312 14.84375 -36.472656 14.90625 -33.953125 C 14.976562 -31.441406 15.191406 -29.171875 15.546875 -27.140625 C 16.234375 -23.191406 17.585938 -20.253906 19.609375 -18.328125 C 21.640625 -16.398438 24.28125 -15.644531 27.53125 -16.0625 Z M 27.53125 -16.0625 "/></g></g><g style="fill:#000000;fill-opacity:1;"><g transform="translate(180.781679, 177.790255)"><path style="stroke:none" d="M 27.421875 -1.640625 C 22.585938 -1.023438 18.300781 -1.460938 14.5625 -2.953125 C 10.820312 -4.441406 7.75 -6.882812 5.34375 -10.28125 C 2.945312 -13.675781 1.285156 -17.898438 0.359375 -22.953125 C -0.285156 -26.492188 -0.582031 -30.226562 -0.53125 -34.15625 C -0.476562 -38.09375 -0.046875 -42.046875 0.765625 -46.015625 C 1.585938 -49.992188 2.800781 -53.8125 4.40625 -57.46875 C 6.019531 -61.125 8.070312 -64.453125 10.5625 -67.453125 C 13.050781 -70.460938 16.007812 -72.945312 19.4375 -74.90625 C 22.875 -76.875 26.800781 -78.140625 31.21875 -78.703125 C 35.550781 -79.253906 39.34375 -78.9375 42.59375 -77.75 C 45.851562 -76.5625 48.59375 -74.707031 50.8125 -72.1875 C 53.039062 -69.675781 54.789062 -66.691406 56.0625 -63.234375 C 57.332031 -59.773438 58.144531 -56.035156 58.5 -52.015625 C 58.851562 -48.242188 58.875 -44.460938 58.5625 -40.671875 C 58.25 -36.890625 57.585938 -33.203125 56.578125 -29.609375 C 55.578125 -26.023438 54.226562 -22.65625 52.53125 -19.5 C 50.84375 -16.34375 48.789062 -13.515625 46.375 -11.015625 C 43.96875 -8.515625 41.1875 -6.453125 38.03125 -4.828125 C 34.875 -3.203125 31.335938 -2.140625 27.421875 -1.640625 Z M 27.53125 -16.0625 C 29.875 -16.363281 31.945312 -17.210938 33.75 -18.609375 C 35.5625 -20.015625 37.097656 -21.816406 38.359375 -24.015625 C 39.628906 -26.210938 40.648438 -28.640625 41.421875 -31.296875 C 42.191406 -33.953125 42.738281 -36.691406 43.0625 -39.515625 C 43.382812 -42.347656 43.484375 -45.109375 43.359375 -47.796875 C 43.285156 -50.046875 43.03125 -52.210938 42.59375 -54.296875 C 42.15625 -56.378906 41.46875 -58.226562 40.53125 -59.84375 C 39.59375 -61.46875 38.351562 -62.695312 36.8125 -63.53125 C 35.269531 -64.363281 33.347656 -64.632812 31.046875 -64.34375 C 28.578125 -64.03125 26.425781 -63.179688 24.59375 -61.796875 C 22.769531 -60.421875 21.222656 -58.675781 19.953125 -56.5625 C 18.679688 -54.445312 17.664062 -52.117188 16.90625 -49.578125 C 16.15625 -47.035156 15.617188 -44.425781 15.296875 -41.75 C 14.972656 -39.070312 14.84375 -36.472656 14.90625 -33.953125 C 14.976562 -31.441406 15.191406 -29.171875 15.546875 -27.140625 C 16.234375 -23.191406 17.585938 -20.253906 19.609375 -18.328125 C 21.640625 -16.398438 24.28125 -15.644531 27.53125 -16.0625 Z M 27.53125 -16.0625 "/></g></g><g style="fill:#000000;fill-opacity:1;"><g transform="translate(244.069764, 169.70655)"><path style="stroke:none" d="M 40.796875 -77.96875 L 56.875 -80.03125 L 32.4375 -4.140625 L 17.921875 -2.28125 L 0.984375 -72.890625 L 16.78125 -74.90625 L 26.234375 -27.890625 Z M 40.796875 -77.96875 "/></g></g><g style="fill:#000000;fill-opacity:1;"><g transform="translate(303.232403, 162.149782)"><path style="stroke:none" d="M 1.03125 -0.125 L 4.6875 -73.359375 L 39.9375 -77.859375 L 39.21875 -63.8125 L 19.28125 -61.265625 L 18.515625 -45.96875 L 35.90625 -48.1875 L 35.265625 -35.046875 L 17.875 -32.8125 L 17.09375 -16.140625 L 37.40625 -18.734375 L 36.65625 -4.6875 Z M 1.03125 -0.125 "/></g></g><g style="fill:#000000;fill-opacity:1;"><g transform="translate(32.309771, 303.009642)"><path style="stroke:none" d="M 41.40625 -78.046875 L 56.6875 -80 L 52.984375 -5.578125 L 41.28125 -4.078125 L 18.25 -42.921875 L 16.40625 -2.09375 L 1.03125 -0.125 L 4.65625 -74.359375 L 16.484375 -75.859375 L 39.234375 -34.9375 Z M 41.40625 -78.046875 "/></g></g><g style="fill:#000000;fill-opacity:1;"><g transform="translate(94.800906, 295.02773)"><path style="stroke:none" d="M 27.421875 -1.640625 C 22.585938 -1.023438 18.300781 -1.460938 14.5625 -2.953125 C 10.820312 -4.441406 7.75 -6.882812 5.34375 -10.28125 C 2.945312 -13.675781 1.285156 -17.898438 0.359375 -22.953125 C -0.285156 -26.492188 -0.582031 -30.226562 -0.53125 -34.15625 C -0.476562 -38.09375 -0.046875 -42.046875 0.765625 -46.015625 C 1.585938 -49.992188 2.800781 -53.8125 4.40625 -57.46875 C 6.019531 -61.125 8.070312 -64.453125 10.5625 -67.453125 C 13.050781 -70.460938 16.007812 -72.945312 19.4375 -74.90625 C 22.875 -76.875 26.800781 -78.140625 31.21875 -78.703125 C 35.550781 -79.253906 39.34375 -78.9375 42.59375 -77.75 C 45.851562 -76.5625 48.59375 -74.707031 50.8125 -72.1875 C 53.039062 -69.675781 54.789062 -66.691406 56.0625 -63.234375 C 57.332031 -59.773438 58.144531 -56.035156 58.5 -52.015625 C 58.851562 -48.242188 58.875 -44.460938 58.5625 -40.671875 C 58.25 -36.890625 57.585938 -33.203125 56.578125 -29.609375 C 55.578125 -26.023438 54.226562 -22.65625 52.53125 -19.5 C 50.84375 -16.34375 48.789062 -13.515625 46.375 -11.015625 C 43.96875 -8.515625 41.1875 -6.453125 38.03125 -4.828125 C 34.875 -3.203125 31.335938 -2.140625 27.421875 -1.640625 Z M 27.53125 -16.0625 C 29.875 -16.363281 31.945312 -17.210938 33.75 -18.609375 C 35.5625 -20.015625 37.097656 -21.816406 38.359375 -24.015625 C 39.628906 -26.210938 40.648438 -28.640625 41.421875 -31.296875 C 42.191406 -33.953125 42.738281 -36.691406 43.0625 -39.515625 C 43.382812 -42.347656 43.484375 -45.109375 43.359375 -47.796875 C 43.285156 -50.046875 43.03125 -52.210938 42.59375 -54.296875 C 42.15625 -56.378906 41.46875 -58.226562 40.53125 -59.84375 C 39.59375 -61.46875 38.351562 -62.695312 36.8125 -63.53125 C 35.269531 -64.363281 33.347656 -64.632812 31.046875 -64.34375 C 28.578125 -64.03125 26.425781 -63.179688 24.59375 -61.796875 C 22.769531 -60.421875 21.222656 -58.675781 19.953125 -56.5625 C 18.679688 -54.445312 17.664062 -52.117188 16.90625 -49.578125 C 16.15625 -47.035156 15.617188 -44.425781 15.296875 -41.75 C 14.972656 -39.070312 14.84375 -36.472656 14.90625 -33.953125 C 14.976562 -31.441406 15.191406 -29.171875 15.546875 -27.140625 C 16.234375 -23.191406 17.585938 -20.253906 19.609375 -18.328125 C 21.640625 -16.398438 24.28125 -15.644531 27.53125 -16.0625 Z M 27.53125 -16.0625 "/></g></g><g style="fill:#000000;fill-opacity:1;"><g transform="translate(158.08899, 286.944024)"><path style="stroke:none" d="M 65.359375 -81.109375 L 69.34375 -8.859375 L 54.109375 -6.90625 L 52.5625 -46.96875 L 52.5 -47.4375 L 52.375 -47 L 39.015625 -4.984375 L 30.046875 -3.84375 L 20.125 -42.6875 L 15.046875 -1.921875 L -0.984375 0.125 L 9.890625 -74.03125 L 23.765625 -75.796875 L 35.15625 -30.984375 L 51.46875 -79.328125 Z M 65.359375 -81.109375 "/></g></g><g style="fill:#000000;fill-opacity:1;"><g transform="translate(234.644145, 277.165732)"><path style="stroke:none" d="M 38.015625 -4.859375 L 35.046875 -20.71875 L 18.765625 -18.640625 L 14.0625 -1.796875 L -2.53125 0.328125 L 21.5625 -75.515625 L 37.375 -77.53125 L 54.203125 -6.921875 Z M 22.546875 -31.984375 L 32.671875 -33.28125 L 28.734375 -54.125 Z M 22.546875 -31.984375 "/></g></g><g style="fill:#000000;fill-opacity:1;"><g transform="translate(294.556866, 269.513157)"><path style="stroke:none" d="M 1.03125 -0.125 L 4.6875 -73.359375 L 23.921875 -75.8125 C 31.796875 -76.820312 38.078125 -75.695312 42.765625 -72.4375 C 47.453125 -69.175781 50.472656 -63.847656 51.828125 -56.453125 C 52.472656 -52.878906 52.800781 -49.164062 52.8125 -45.3125 C 52.820312 -41.457031 52.457031 -37.613281 51.71875 -33.78125 C 50.988281 -29.957031 49.835938 -26.316406 48.265625 -22.859375 C 46.691406 -19.398438 44.632812 -16.253906 42.09375 -13.421875 C 39.5625 -10.585938 36.5 -8.226562 32.90625 -6.34375 C 29.320312 -4.457031 25.148438 -3.210938 20.390625 -2.609375 Z M 17.140625 -16.53125 L 20.609375 -16.96875 C 23.265625 -17.3125 25.550781 -18.101562 27.46875 -19.34375 C 29.394531 -20.59375 31.007812 -22.164062 32.3125 -24.0625 C 33.613281 -25.957031 34.640625 -28.039062 35.390625 -30.3125 C 36.140625 -32.582031 36.660156 -34.925781 36.953125 -37.34375 C 37.253906 -39.769531 37.367188 -42.144531 37.296875 -44.46875 C 37.222656 -46.800781 37.015625 -48.941406 36.671875 -50.890625 C 35.972656 -54.835938 34.515625 -57.695312 32.296875 -59.46875 C 30.085938 -61.238281 27.03125 -61.875 23.125 -61.375 L 19.328125 -60.890625 Z M 17.140625 -16.53125 "/></g></g></g></svg>